<?xml version="1.0" standalone="no"?>
<!DOCTYPE svg PUBLIC "-//W3C//DTD SVG 20010904//EN"
 "http://www.w3.org/TR/2001/REC-SVG-20010904/DTD/svg10.dtd">
<svg version="1.0" xmlns="http://www.w3.org/2000/svg"
 width="945.000000pt" height="1000.000000pt" viewBox="0 0 945.000000 1000.000000"
 preserveAspectRatio="xMidYMid meet">

<g transform="translate(0.000000,1000.000000) scale(0.100000,-0.100000)"
fill="#000000" stroke="none">
<path d="M5400 9990 c-131 -10 -254 -35 -358 -72 -224 -79 -435 -227 -505
-357 -31 -57 -47 -117 -82 -306 -35 -190 -34 -288 4 -500 32 -180 49 -237 102
-350 31 -66 33 -76 35 -190 1 -111 4 -128 36 -215 20 -53 41 -134 47 -180 19
-144 50 -218 108 -255 21 -14 33 -31 36 -54 4 -18 31 -77 61 -130 43 -76 67
-137 115 -297 34 -110 61 -208 61 -217 0 -10 -46 -68 -102 -130 -57 -62 -146
-164 -200 -228 -114 -136 -170 -198 -425 -470 -234 -250 -299 -314 -432 -426
-146 -123 -160 -147 -210 -350 -58 -237 -66 -305 -51 -433 l12 -105 -32 -100
c-43 -132 -84 -213 -173 -343 -87 -126 -126 -191 -199 -329 l-55 -103 -59 54
c-66 59 -111 86 -147 86 -23 0 -109 -48 -121 -69 -10 -16 -132 -14 -165 4 -43
22 -71 89 -82 196 -16 156 -71 241 -200 310 -93 50 -97 62 -54 140 135 244
153 326 106 489 -6 19 -17 107 -26 195 -19 191 -36 259 -120 470 -35 88 -89
243 -120 345 -31 102 -108 347 -170 545 -193 613 -253 806 -600 1935 -186 602
-344 1107 -352 1121 -37 64 -123 77 -212 33 -61 -31 -111 -92 -111 -136 0 -32
81 -325 112 -402 23 -60 25 -133 5 -172 -9 -16 -32 -45 -52 -64 -87 -83 -94
-147 -36 -348 22 -75 69 -243 105 -372 114 -414 461 -1624 561 -1960 131 -438
137 -463 139 -645 1 -123 -3 -169 -22 -252 -12 -56 -22 -118 -22 -138 0 -22
-9 -50 -22 -68 -20 -27 -24 -50 -29 -152 -4 -66 -11 -136 -18 -155 -21 -67
-15 -100 28 -141 l40 -37 -42 -17 c-118 -46 -156 -104 -186 -280 -11 -66 -36
-172 -56 -235 -31 -99 -35 -120 -26 -154 5 -22 8 -43 5 -48 -3 -4 -47 -8 -97
-8 -92 0 -157 -13 -231 -44 -58 -24 -93 -9 -189 88 -60 59 -100 110 -146 189
-35 59 -65 106 -67 104 -6 -6 42 -119 92 -220 25 -49 44 -91 42 -93 -2 -2 -23
22 -47 52 -52 67 -122 199 -186 351 -27 62 -52 110 -56 107 -17 -10 -8 -94 17
-166 38 -106 102 -228 183 -351 39 -59 71 -112 71 -117 0 -13 -58 -42 -69 -35
-21 12 -266 372 -322 472 -13 24 -27 43 -31 43 -5 0 -8 -26 -8 -58 0 -65 13
-91 178 -342 45 -68 82 -129 82 -136 0 -14 -20 -23 -37 -17 -20 7 -117 142
-178 248 -31 55 -61 104 -66 110 -18 18 -10 -142 9 -192 18 -45 90 -154 167
-252 19 -24 35 -50 35 -58 0 -8 -28 -54 -63 -102 -117 -162 -198 -347 -236
-539 -47 -230 -51 -477 -12 -642 55 -238 50 -340 -29 -512 -28 -60 -50 -117
-50 -126 0 -9 36 -55 81 -102 l80 -85 -30 -100 c-16 -55 -26 -104 -22 -108 12
-12 244 138 288 186 l40 43 65 -62 c111 -105 241 -183 411 -245 103 -38 117
-51 115 -102 -2 -43 24 -73 52 -61 8 4 42 9 75 11 123 9 663 -139 964 -264
151 -62 243 -139 296 -247 42 -86 76 -254 80 -401 2 -72 4 -133 5 -137 0 -5
13 -8 28 -8 31 0 68 29 81 63 10 25 213 879 262 1100 24 106 37 147 48 147 12
0 13 -17 8 -107 -9 -158 -38 -310 -121 -637 -69 -270 -110 -465 -100 -475 2
-2 54 20 116 49 529 248 1209 395 1746 377 422 -14 755 -85 1041 -223 75 -35
123 -53 137 -50 15 4 27 22 40 58 23 63 92 123 210 182 206 103 559 185 887
206 209 13 931 13 1078 -1 90 -8 124 -8 132 0 15 15 -11 90 -106 306 -38 88
-70 171 -71 185 -4 88 312 93 491 9 97 -46 128 -89 215 -301 42 -101 81 -201
88 -223 47 -150 128 -225 260 -240 87 -10 90 -6 154 245 31 118 69 276 86 350
17 74 64 234 105 355 152 449 166 569 87 718 -53 98 -130 142 -322 182 -185
39 -484 115 -495 126 -5 6 -12 66 -15 134 l-5 123 57 -54 c98 -93 184 -111
281 -56 131 73 147 223 41 374 l-33 47 38 28 c77 56 125 135 159 259 25 91 42
115 104 155 96 62 156 164 178 304 19 117 -3 217 -85 395 -99 214 -110 304
-67 530 44 225 55 332 50 482 -3 107 -8 142 -25 178 -29 63 -86 116 -152 140
-72 26 -81 31 -105 63 -18 25 -19 31 -6 97 17 89 6 131 -60 220 -59 81 -64 91
-160 318 -147 352 -298 649 -360 712 -47 47 -106 74 -210 95 -47 9 -128 33
-180 52 -215 77 -427 120 -739 148 -188 16 -263 39 -313 92 -13 14 -87 55
-164 93 -78 37 -159 84 -181 103 -50 46 -88 116 -108 198 -24 103 -21 123 24
159 37 30 81 99 96 150 4 14 24 63 45 110 50 109 64 204 50 338 -12 119 -23
146 -66 171 -42 25 -43 41 -7 140 47 132 36 284 -37 496 -52 152 -117 303
-151 354 -57 83 -237 280 -291 316 -59 41 -177 91 -275 116 -62 15 -107 19
-247 18 -94 -1 -214 -5 -266 -9z m428 -103 c17 -15 24 -16 42 -7 38 20 73 9
92 -30 14 -29 17 -31 18 -12 0 44 38 23 58 -33 9 -25 11 -26 11 -8 1 31 16 36
51 18 35 -18 40 -51 14 -90 -21 -32 -15 -31 31 5 29 23 41 27 55 20 24 -13 34
-44 21 -69 -9 -17 -6 -20 24 -25 51 -10 93 -50 108 -104 10 -35 20 -48 37 -52
35 -8 58 -47 74 -125 8 -38 26 -101 41 -140 60 -159 74 -208 84 -294 14 -109
8 -176 -26 -300 -29 -105 -26 -119 25 -137 18 -5 36 -14 42 -20 16 -16 31
-225 20 -282 -5 -27 -27 -92 -49 -144 -22 -51 -43 -105 -46 -121 -10 -38 -59
-77 -99 -77 -39 0 -63 -23 -72 -71 -4 -19 -22 -68 -41 -111 -18 -42 -33 -80
-33 -85 0 -14 -40 -48 -77 -67 -17 -8 -53 -39 -80 -67 -78 -83 -282 -206 -403
-244 -22 -7 -23 -6 -12 8 7 8 44 37 83 63 86 58 159 137 192 207 39 80 42 97
19 97 -10 0 -27 -9 -37 -20 -32 -36 -37 -7 -15 95 11 54 20 115 20 137 0 35 2
38 29 38 15 0 42 -5 59 -11 37 -13 72 2 72 31 0 11 -10 39 -22 62 -18 33 -23
60 -23 115 0 69 2 76 75 218 41 81 81 150 88 153 7 2 18 0 25 -7 20 -20 27
-12 27 34 0 25 4 45 10 45 19 0 30 -40 30 -105 0 -36 5 -75 11 -87 8 -16 6
-35 -11 -89 -39 -120 -19 -285 36 -306 24 -9 84 55 84 89 0 29 -32 70 -61 80
-11 4 -11 9 5 27 20 22 51 28 61 11 9 -15 25 -12 25 4 0 8 20 35 45 62 51 53
54 74 34 193 -20 118 -46 121 -95 14 -26 -58 -38 -73 -45 -63 -15 25 -10 44
26 104 19 32 35 60 35 62 0 2 -16 -6 -35 -17 -41 -24 -65 -19 -65 13 0 31 -67
85 -118 96 -55 13 -97 45 -128 97 -36 63 -18 118 20 60 16 -24 183 -155 199
-155 10 0 -1 47 -24 95 -13 28 -16 42 -8 50 8 7 16 3 27 -14 10 -14 25 -34 34
-45 26 -33 50 -10 67 63 12 52 13 68 2 98 -13 34 -12 37 10 54 22 17 23 20 11
61 -7 24 -19 67 -27 96 -29 103 -81 173 -141 188 -23 6 -34 24 -14 24 6 0 19
9 30 20 l20 20 -20 40 c-14 27 -33 46 -58 58 -20 9 -39 17 -41 19 -2 1 10 13
25 27 28 25 28 25 7 26 -24 0 -33 33 -13 45 6 3 10 13 10 21 0 11 -14 4 -42
-21 -24 -20 -44 -32 -46 -26 -4 12 24 66 56 109 14 18 19 32 12 32 -16 0 -71
-58 -92 -98 -22 -41 -47 -40 -73 1 -11 18 -38 40 -60 51 -22 10 -48 25 -57 33
-9 8 -22 12 -27 8 -6 -3 -11 -2 -11 4 0 5 -10 27 -22 47 -19 32 -23 35 -32 21
-8 -13 -14 -6 -27 36 -15 45 -18 49 -24 29 -7 -20 -9 -21 -19 -6 -19 25 -50
13 -57 -21 -7 -30 -11 -27 -13 9 -1 10 -8 23 -18 29 -22 14 -48 -7 -48 -39 0
-12 -4 -25 -8 -28 -14 -9 -50 23 -54 47 -4 18 -6 16 -14 -13 l-10 -35 -7 28
c-8 30 -22 35 -31 12 -8 -23 -26 -18 -26 8 0 13 -7 32 -15 43 -13 17 -14 14
-15 -43 0 -35 -4 -63 -8 -63 -5 0 -20 10 -33 23 l-24 22 -27 -80 -27 -80 2 74
2 75 -45 9 c-31 6 -45 6 -48 -2 -5 -16 -45 -14 -68 4 -27 20 -36 19 -29 -5 7
-23 2 -25 -26 -10 -24 13 -25 -3 -4 -53 22 -54 18 -66 -9 -26 -14 20 -40 44
-59 53 -53 24 -59 21 -42 -20 8 -20 22 -75 30 -122 9 -48 21 -112 28 -142 l11
-55 6 50 5 50 25 -62 c28 -72 37 -70 71 13 23 54 39 70 39 37 -1 -10 -7 -29
-15 -43 -16 -29 -20 -76 -6 -85 6 -3 14 2 19 12 9 15 14 15 38 4 26 -12 30
-11 51 14 25 28 30 16 13 -29 -13 -36 -3 -32 36 12 18 20 33 31 34 23 0 -8 -8
-23 -17 -34 -18 -19 -17 -20 32 -12 81 12 141 50 173 110 9 17 17 25 20 17 2
-7 -5 -30 -17 -52 -20 -39 -20 -40 -1 -50 29 -15 37 -13 80 26 40 37 68 41 37
6 -21 -23 -22 -38 -1 -46 31 -12 61 -6 94 19 l34 25 21 -24 c11 -13 39 -34 61
-45 44 -21 56 -43 43 -79 -8 -21 -14 -22 -112 -22 -143 0 -159 -22 -87 -119
65 -87 52 -119 -79 -191 -83 -46 -92 -58 -66 -80 12 -10 24 -10 55 -1 22 6 52
8 67 4 23 -5 8 -12 -86 -35 -63 -15 -137 -39 -166 -52 l-53 -24 -6 30 c-3 17
-6 42 -7 57 0 28 -1 28 -29 -44 l-11 -30 -19 25 c-16 21 -20 22 -20 7 0 -10
-11 -29 -25 -43 l-25 -25 -50 28 c-57 32 -35 36 -295 -55 -205 -72 -277 -103
-318 -138 l-31 -26 -50 99 -51 98 2 105 c2 70 -3 123 -12 157 -9 29 -16 70
-17 90 -2 52 29 247 47 289 10 26 12 42 4 61 -14 38 -5 57 22 43 11 -7 22 -10
24 -8 1 2 -2 26 -8 55 -9 44 -8 55 7 78 10 15 32 33 51 40 35 15 81 64 96 103
9 24 29 22 29 -4 0 -29 19 -13 22 19 3 29 6 32 42 35 27 2 40 9 43 22 3 10 17
20 33 23 15 4 56 24 91 47 41 27 73 40 96 40 19 0 52 10 73 22 39 23 39 23 75
4 35 -19 35 -19 58 2 26 25 50 27 298 27 167 0 189 -2 207 -18z m-4826 -264
c9 -10 66 -182 128 -383 195 -635 838 -2705 995 -3202 52 -164 95 -301 95
-303 0 -3 -9 -5 -19 -5 -23 0 -7 -47 -191 560 -158 519 -283 929 -527 1725
-339 1109 -459 1504 -469 1544 -12 44 -34 59 -68 43 -29 -13 -35 -56 -15 -95
7 -11 45 -136 86 -277 40 -140 130 -448 200 -683 104 -354 124 -430 112 -438
-20 -13 -39 -11 -39 4 0 10 -90 319 -229 785 -19 62 -25 71 -37 61 -8 -6 -14
-27 -14 -45 0 -19 46 -199 101 -401 56 -203 106 -387 112 -410 10 -43 5 -65
-12 -47 -5 5 -54 167 -110 359 -56 193 -105 361 -109 375 -15 49 -102 28 -102
-25 0 -13 146 -538 325 -1167 612 -2147 564 -1973 554 -2015 -19 -84 -7 -112
33 -76 10 9 21 14 24 10 10 -10 -16 -47 -46 -62 -29 -15 -49 -67 -37 -99 9
-24 -13 -90 -43 -126 -24 -29 -30 -32 -44 -21 -23 19 -20 28 19 74 42 48 44
64 10 77 -14 5 -25 12 -25 15 0 3 7 47 16 97 20 112 14 231 -17 373 -11 54
-84 314 -160 579 -384 1321 -659 2299 -659 2340 0 40 6 52 51 103 105 119 114
174 56 348 -63 190 -98 340 -88 367 18 48 113 75 143 41z m5018 -749 c71 -29
104 -104 46 -104 -19 0 -36 14 -66 55 -22 30 -40 57 -40 60 0 9 18 6 60 -11z
m-1202 -381 c11 -22 6 -41 -21 -70 -29 -32 -37 -29 -37 16 0 57 39 92 58 54z
m585 -15 c30 -23 65 -208 49 -263 -8 -28 -12 -30 -53 -30 -37 0 -44 -3 -44
-20 0 -16 8 -21 45 -25 57 -7 70 -15 70 -46 0 -16 -8 -28 -25 -36 -21 -9 -33
-7 -76 15 -64 34 -82 34 -108 1 -16 -21 -18 -30 -10 -46 9 -17 16 -19 42 -12
55 13 93 8 127 -16 l32 -23 -28 -15 c-33 -17 -44 -30 -44 -54 0 -14 8 -18 36
-18 59 0 40 -29 -36 -55 -92 -31 -125 -50 -155 -89 -29 -39 -42 -112 -28 -165
l9 -35 19 31 c46 72 139 176 171 189 18 8 67 14 108 14 71 0 76 -1 96 -29 19
-28 20 -30 3 -39 -10 -5 -51 -12 -91 -15 -111 -9 -178 -54 -201 -134 -5 -18
-8 -33 -5 -33 2 0 24 18 49 41 33 30 51 40 70 37 l27 -3 -22 -28 c-18 -22 -19
-28 -7 -33 9 -3 30 2 47 11 37 19 46 15 28 -14 -11 -18 -10 -22 6 -34 18 -13
18 -15 -9 -60 -15 -26 -37 -84 -50 -130 -26 -96 -49 -145 -72 -154 -33 -13
-291 137 -373 218 -58 57 -100 138 -100 194 0 37 -10 55 -32 55 -51 0 -81 42
-93 130 -13 106 -44 230 -74 299 -39 87 -40 123 -5 158 24 24 26 30 15 58 -17
48 -14 48 25 5 20 -22 61 -52 92 -67 49 -24 72 -28 164 -31 l107 -4 -10 -25
c-5 -13 -9 -36 -9 -51 0 -15 -14 -65 -30 -112 -34 -96 -39 -128 -12 -89 9 15
42 51 73 81 67 64 96 117 139 258 35 113 91 235 112 243 20 8 23 8 41 -5z
m-537 -155 c61 -76 59 -73 30 -73 -27 0 -106 62 -106 84 0 13 20 36 31 36 4 0
25 -21 45 -47z m1573 -92 c8 -13 4 -36 -12 -85 -12 -36 -25 -66 -28 -66 -15 0
-15 55 -1 111 15 62 25 71 41 40z m-5045 -931 c85 -300 221 -768 301 -1040 81
-272 147 -502 148 -510 1 -10 -7 -15 -22 -15 -21 0 -26 7 -36 55 -10 44 -253
903 -335 1180 -10 36 -66 238 -124 449 -97 349 -122 462 -97 436 5 -6 79 -255
165 -555z m5036 217 c-10 -96 -34 -208 -50 -236 -7 -13 -13 -7 -31 33 -32 72
-23 145 32 255 37 75 43 82 50 63 5 -13 4 -64 -1 -115z m159 -195 c33 -22 110
-61 172 -87 186 -77 253 -133 283 -237 16 -52 28 -128 21 -128 -2 0 -32 42
-66 93 -73 108 -177 215 -240 245 -30 15 -64 22 -102 22 -80 0 -104 -25 -157
-161 -34 -89 -126 -257 -135 -247 -2 2 12 57 31 123 36 122 74 320 74 380 0
18 3 46 6 63 l6 31 25 -29 c13 -16 50 -47 82 -68z m-405 -28 c9 -8 16 -17 16
-19 0 -13 -57 -281 -81 -383 -16 -68 -29 -149 -29 -179 l0 -56 26 24 c14 13
59 93 100 177 40 83 78 152 83 152 21 0 -17 -138 -62 -223 -68 -130 -320 -316
-538 -399 -78 -29 -94 -32 -209 -32 -142 -1 -199 12 -241 53 -37 37 -49 85
-37 155 10 68 8 78 -66 370 -59 232 -64 263 -42 272 18 7 145 -57 224 -113 70
-50 141 -138 168 -208 9 -25 20 -42 25 -38 4 4 17 40 28 78 25 82 82 170 124
192 61 31 148 -24 163 -104 11 -60 -4 -232 -29 -343 -14 -58 -23 -107 -21
-109 6 -7 142 285 204 439 72 178 112 262 140 290 24 24 34 25 54 4z m1318
-270 c190 -26 337 -61 537 -129 246 -83 289 -104 346 -168 58 -63 85 -117 120
-232 15 -50 39 -105 54 -123 50 -64 58 -83 65 -149 8 -73 22 -106 60 -142 32
-30 34 -67 6 -120 -64 -127 -141 -164 -574 -272 -132 -33 -258 -69 -280 -81
-23 -11 -92 -72 -154 -134 -116 -116 -144 -133 -172 -99 -10 12 -8 36 10 123
49 233 113 354 358 666 68 88 140 193 160 233 29 59 41 73 59 73 15 0 27 -9
34 -24 10 -20 5 -35 -30 -102 -22 -44 -70 -115 -106 -159 -58 -72 -132 -191
-123 -200 1 -2 77 12 168 31 91 19 185 34 210 33 l45 -1 -35 -15 c-19 -9 -87
-30 -151 -48 -188 -53 -338 -119 -403 -176 -48 -42 -87 -129 -94 -207 -5 -64
-5 -64 19 -57 13 4 49 25 79 46 39 28 112 59 255 108 317 110 531 188 582 215
46 23 138 95 131 102 -2 2 -62 12 -132 23 -71 11 -131 23 -134 26 -9 9 10 21
53 33 47 13 101 61 107 96 11 57 -44 142 -117 182 -18 10 -43 34 -54 55 -11
20 -26 41 -33 47 -12 9 -87 20 -145 22 -34 0 -28 12 20 43 31 21 52 27 82 25
36 -3 43 -8 72 -52 46 -71 63 -78 63 -26 0 126 -83 174 -219 127 -160 -56
-278 -165 -440 -405 -57 -84 -108 -155 -114 -159 -14 -9 85 175 141 261 61 94
180 217 266 273 38 26 109 62 156 80 l85 32 -37 15 c-86 37 -200 4 -343 -98
-112 -81 -190 -172 -295 -345 -35 -59 -44 -50 -15 15 41 92 109 186 197 270
77 73 111 101 238 193 42 31 43 33 15 27 -16 -4 -76 -30 -133 -58 -57 -28
-105 -49 -107 -46 -3 2 31 39 75 81 79 77 93 104 66 126 -24 20 -247 72 -336
78 -65 4 -110 0 -189 -16 -124 -25 -142 -26 -210 -5 -55 16 -131 75 -131 102
0 13 17 14 130 9 71 -4 180 -14 242 -23z m243 -186 c25 -20 27 -26 22 -72 -9
-89 -67 -246 -146 -401 -42 -82 -85 -168 -94 -190 l-17 -40 4 70 c4 62 11 83
65 186 63 121 141 315 141 349 0 10 -9 24 -19 30 -16 8 -31 2 -82 -33 -122
-81 -182 -209 -215 -455 -10 -72 -21 -126 -25 -120 -4 7 -18 53 -30 103 -28
114 -42 146 -79 189 l-30 34 57 -5 c70 -6 68 -8 148 132 123 214 220 286 300
223z m-2698 -187 c-11 -96 -182 -403 -344 -619 -131 -176 -233 -272 -406 -386
-81 -54 -156 -109 -167 -123 -10 -13 -22 -45 -25 -71 -11 -82 -15 -93 -49
-125 -37 -35 -37 -29 -53 -349 -4 -89 -10 -131 -19 -139 -18 -15 -40 2 -49 38
-13 55 -108 303 -115 303 -24 0 19 -230 64 -341 14 -34 23 -66 20 -71 -12 -20
-27 -3 -64 75 -22 45 -49 93 -60 107 l-20 25 1 -25 c0 -14 6 -54 14 -90 17
-79 19 -164 4 -193 -15 -29 -50 -67 -61 -67 -5 0 -6 6 -1 13 4 6 8 104 9 217
1 202 1 207 42 382 23 97 48 187 56 200 24 36 343 324 351 316 2 -2 -25 -37
-61 -78 -93 -107 -117 -157 -112 -236 4 -71 11 -83 36 -68 13 9 17 27 18 82 1
84 5 92 125 222 139 152 248 286 434 535 95 128 201 266 236 306 63 75 190
209 198 209 2 0 1 -22 -2 -49z m2093 -126 c0 -56 -48 -98 -155 -135 -59 -20
-320 -50 -443 -50 -75 0 -96 -9 -90 -36 4 -25 105 -60 308 -109 257 -62 257
-62 193 -157 -49 -73 -163 -206 -181 -213 -33 -12 -20 10 67 115 50 61 96 121
100 133 12 30 -4 57 -32 55 -37 -2 -278 43 -342 64 -75 24 -183 87 -190 109
-9 28 16 68 49 78 17 5 110 12 206 16 208 7 376 27 426 51 39 19 64 62 64 111
0 22 2 25 10 13 5 -8 10 -29 10 -45z m-1787 -260 c22 -52 66 -93 111 -102 l31
-7 -31 -6 c-66 -14 -219 17 -282 58 -33 22 -22 24 31 6 25 -8 60 -14 79 -12
l33 3 -2 53 c-1 28 1 52 5 52 4 0 15 -20 25 -45z m1834 25 c30 -18 70 -70 87
-115 23 -58 44 -171 35 -187 -12 -22 -41 -38 -71 -38 -29 0 -102 46 -142 89
-38 39 -17 42 54 6 27 -14 56 -25 64 -25 46 0 35 104 -18 173 -35 46 -98 87
-133 87 -13 0 -23 4 -23 9 0 27 104 28 147 1z m-1138 -181 c-100 -350 -169
-661 -246 -1104 -6 -40 -12 -51 -30 -53 -40 -6 -44 24 -22 164 59 390 105 576
214 869 52 140 125 308 131 302 2 -2 -19 -82 -47 -178z m-1153 16 c4 -25 -1
-60 -19 -118 -14 -45 -44 -152 -66 -237 -82 -313 -179 -643 -192 -651 -37 -23
-102 -2 -124 41 -17 34 -25 219 -13 305 7 47 6 46 -17 -23 -41 -121 -50 -199
-35 -299 13 -85 13 -86 -9 -104 -12 -10 -28 -16 -36 -13 -23 9 -56 123 -62
212 -11 152 23 224 248 534 111 153 299 388 309 388 5 0 12 -16 16 -35z m124
-18 c0 -42 25 -93 55 -113 26 -17 30 -17 77 0 27 10 52 15 54 13 3 -2 -6 -17
-19 -33 -14 -16 -54 -71 -90 -123 -55 -77 -65 -96 -56 -112 5 -10 13 -19 17
-19 4 0 34 18 67 40 33 22 63 40 67 40 4 0 -26 -69 -67 -152 -41 -84 -94 -214
-120 -288 -57 -168 -69 -182 -150 -178 -53 3 -60 6 -63 24 -2 12 44 225 102
474 59 249 106 460 106 469 0 14 2 14 10 1 5 -8 10 -28 10 -43z m2018 -193 c4
-31 -32 -57 -81 -58 -35 -1 -42 2 -45 19 -3 29 11 46 49 55 51 12 74 8 77 -16z
m-1287 -86 c-71 -113 -257 -336 -269 -323 -10 10 77 170 120 219 42 49 146
136 161 136 5 0 0 -15 -12 -32z m1557 -55 c3 -25 -3 -36 -30 -56 -33 -25 -101
-57 -120 -57 -18 0 14 30 59 57 28 16 43 32 43 45 0 18 -4 20 -32 13 -77 -17
-83 -18 -73 -7 23 24 72 42 110 40 37 -3 40 -5 43 -35z m-678 -250 c-87 -131
-189 -276 -226 -323 -74 -93 -251 -273 -305 -310 -19 -13 10 21 63 76 120 122
190 209 393 490 154 212 224 304 231 304 2 0 -68 -107 -156 -237z m416 196
c10 -17 -10 -31 -161 -109 -187 -96 -137 -38 64 76 85 48 87 48 97 33z m-4724
-224 c18 -57 22 -90 21 -175 -2 -87 2 -119 23 -186 18 -56 24 -97 22 -135 l-4
-54 -17 39 c-12 24 -26 103 -37 210 -22 195 -51 342 -86 435 -13 35 -24 71
-23 80 1 23 74 -131 101 -214z m4725 128 c3 -8 -25 -26 -69 -47 -40 -18 -127
-59 -193 -90 -151 -73 -130 -39 25 38 58 29 128 67 155 84 52 32 75 36 82 15z
m60 -75 c4 -7 10 -103 13 -214 l5 -201 32 -61 c36 -70 25 -82 -29 -34 -31 28
-32 32 -44 163 -19 192 -18 359 0 359 8 0 18 -6 23 -12z m994 -8 c30 -6 97
-15 149 -21 149 -16 577 -87 665 -111 152 -40 219 -82 254 -158 33 -72 10
-555 -31 -644 -17 -38 -27 -32 -18 12 35 158 39 533 6 607 -23 53 -52 84 -102
106 -23 11 -195 44 -406 78 -383 63 -511 81 -592 81 -67 0 -125 -34 -153 -92
-21 -44 -120 -320 -148 -415 -9 -29 -19 -53 -22 -53 -11 0 5 175 22 240 21 82
124 287 163 323 32 31 91 56 133 57 15 0 51 -5 80 -10z m-36 -121 c22 -6 69
-31 105 -54 106 -71 158 -60 81 16 -47 47 -48 49 -23 43 9 -2 95 -13 191 -24
96 -11 213 -29 260 -40 47 -10 124 -26 171 -35 105 -20 174 -56 218 -114 18
-24 31 -45 30 -47 -2 -2 -26 8 -54 22 -56 27 -215 64 -281 64 -46 0 -63 -17
-63 -65 0 -17 -7 -28 -23 -34 -44 -17 -78 0 -173 90 -52 49 -99 89 -104 89 -4
0 -15 3 -24 6 -31 12 -16 -16 44 -82 64 -70 68 -79 46 -87 -24 -9 -60 5 -260
102 -104 50 -197 91 -207 91 -31 0 -50 -40 -39 -81 l9 -34 -29 33 c-45 49 -38
106 18 136 33 18 55 19 107 5z m-3796 -111 c1 -66 8 -143 18 -186 15 -66 15
-77 2 -100 -14 -25 -215 -159 -225 -149 -7 7 18 190 27 201 4 5 18 -7 29 -28
40 -67 79 -33 42 38 -11 23 -32 69 -46 103 -31 74 -26 96 31 138 21 16 55 44
76 62 20 18 39 33 41 33 2 0 4 -51 5 -112z m2547 15 c-105 -124 -139 -214
-125 -328 3 -27 6 -51 5 -51 -1 -1 -37 9 -80 22 -44 13 -94 24 -112 24 -17 0
-37 7 -45 16 -38 46 138 239 311 341 58 34 106 60 108 58 2 -2 -26 -39 -62
-82z m-5062 -208 c4 -33 19 -98 31 -145 25 -91 45 -191 45 -224 0 -77 -88 187
-104 314 l-13 95 -13 -42 c-11 -37 -10 -52 7 -122 12 -45 19 -81 16 -81 -13 0
-43 92 -43 132 0 51 -12 67 -36 47 -29 -24 -23 -1 12 45 29 38 41 47 62 44 25
-3 28 -8 36 -63z m3531 -56 c229 -46 389 -116 735 -322 303 -180 494 -286 666
-368 78 -38 146 -74 149 -79 4 -6 -6 -10 -23 -10 -54 0 -325 142 -762 400
-297 175 -410 234 -515 270 -326 110 -722 119 -1005 23 -136 -46 -360 -167
-495 -266 -271 -200 -460 -438 -662 -834 -58 -112 -109 -203 -114 -203 -53 0
55 250 208 485 267 408 428 565 751 729 355 180 732 242 1067 175z m-3601
-154 c28 -87 45 -191 27 -165 -6 8 -16 40 -22 70 -6 30 -18 68 -27 85 -15 29
-15 29 -23 7 -12 -32 -29 -27 -29 8 0 37 28 96 40 84 4 -5 19 -45 34 -89z
m3166 20 c0 -2 -20 -53 -44 -112 -63 -154 -118 -325 -159 -493 -20 -80 -40
-163 -46 -185 -8 -30 -9 6 -7 150 3 160 8 207 29 295 46 191 95 313 136 335
24 13 91 21 91 10z m-311 -67 c-6 -24 -23 -83 -39 -133 -34 -108 -103 -337
-126 -420 -13 -48 -17 -112 -18 -315 -1 -272 -10 -332 -37 -254 -10 29 -14
102 -14 279 0 236 1 242 29 335 25 84 50 276 33 260 -3 -3 -15 -50 -26 -104
-30 -150 -41 -144 -41 25 0 79 -5 163 -10 187 -6 26 -7 50 -1 59 8 15 223 121
247 122 9 1 9 -11 3 -41z m3828 -54 c6 -19 -88 -52 -282 -99 -102 -24 -257
-65 -343 -89 -307 -87 -345 -106 -462 -228 -50 -51 -69 -65 -80 -58 -38 24 85
164 195 222 95 49 253 98 610 189 292 75 355 86 362 63z m-479 -39 c6 -5 -156
-55 -180 -55 -21 0 -21 0 2 25 13 14 37 29 54 33 28 8 116 6 124 -3z m-3656
-322 c-3 -266 5 -492 24 -638 4 -36 3 -37 -7 -15 -21 48 -58 210 -75 327 -19
140 -22 391 -5 483 12 63 46 150 59 150 4 0 6 -138 4 -307z m1607 218 c19 -5
10 -10 -50 -30 -78 -25 -166 -66 -233 -109 -98 -63 -393 -295 -665 -523 -404
-338 -521 -411 -761 -474 -109 -29 -182 -32 -200 -10 -25 30 -4 42 111 60 138
21 194 37 284 82 107 53 198 122 1010 763 131 103 245 185 282 202 82 39 169
54 222 39z m-1727 -138 l3 -113 -27 53 c-32 61 -37 130 -12 166 9 12 20 19 24
14 5 -4 10 -59 12 -120z m2397 55 c88 -31 173 -71 226 -107 l30 -21 -27 0
c-14 0 -54 9 -89 19 -66 21 -328 142 -329 152 0 11 101 -12 189 -43z m-4349
-81 c102 -100 133 -123 226 -170 109 -55 144 -108 144 -222 0 -27 5 -68 11
-90 23 -86 23 -102 -3 -116 -13 -8 -55 -13 -97 -13 -68 1 -76 3 -98 28 -36 42
-28 107 18 132 l24 13 -27 1 c-38 0 -36 26 5 61 l32 28 -51 1 c-217 1 -444
213 -394 365 6 19 23 44 38 56 43 34 76 20 172 -74z m-442 39 c102 -50 132
-75 132 -111 0 -62 -35 -94 -115 -102 -57 -6 -130 19 -173 59 -14 14 -26 18
-32 12 -5 -5 -46 -135 -91 -288 -87 -295 -87 -295 -32 -296 15 0 30 12 47 38
27 43 43 57 73 65 22 5 184 -11 192 -19 3 -2 -6 -29 -18 -60 -20 -47 -22 -59
-11 -82 12 -26 12 -26 27 -7 8 11 27 45 43 75 15 30 37 64 49 74 31 28 128 34
186 11 62 -23 47 -38 -30 -30 l-63 7 -52 -51 c-50 -48 -52 -51 -38 -72 8 -13
29 -28 46 -33 40 -14 45 -20 38 -44 -21 -66 -211 -38 -285 42 -14 14 -41 30
-60 35 -53 14 -151 23 -151 16 0 -4 17 -23 37 -41 30 -28 33 -34 17 -34 -44 0
-94 22 -114 50 -25 36 -33 37 -72 9 -29 -21 -31 -21 -65 -5 -63 30 -116 31
-185 5 l-63 -24 120 -5 c66 -3 120 -9 120 -14 0 -4 -39 -21 -87 -37 -193 -63
-350 -159 -493 -303 -306 -308 -392 -634 -289 -1095 34 -151 46 -177 37 -76
-5 44 -8 168 -8 275 0 173 3 205 24 285 13 50 34 114 47 143 17 40 20 52 9 52
-8 0 -17 -4 -20 -10 -3 -5 -13 -10 -22 -10 -22 0 -11 49 30 130 43 87 196 242
292 297 228 131 540 181 767 125 173 -43 333 -137 477 -282 288 -288 397 -576
347 -916 -53 -361 -211 -627 -468 -787 -97 -61 -255 -118 -380 -138 -59 -9
-79 -16 -83 -29 -10 -32 -71 -53 -134 -46 -52 6 -55 6 -36 -9 95 -75 337 -48
635 71 453 181 726 568 758 1071 8 130 18 163 48 163 17 0 17 3 -1 -155 -44
-371 -161 -633 -384 -856 -146 -146 -282 -230 -474 -294 -97 -32 -313 -75
-375 -75 -37 0 -50 -15 -54 -65 l-3 -40 -40 4 c-62 5 -75 16 -75 61 0 66 -64
81 -87 20 -14 -38 -33 -39 -33 -2 0 42 -28 61 -127 89 -110 31 -212 78 -304
139 -75 51 -218 187 -260 248 -13 20 -27 36 -31 36 -3 0 -19 -37 -34 -83 -26
-79 -74 -147 -103 -147 -17 0 -15 10 34 158 24 75 47 151 51 167 6 27 7 28 18
12 45 -74 140 -193 199 -250 158 -154 335 -237 562 -262 78 -9 62 7 -29 29
-243 59 -475 223 -624 439 -153 221 -243 526 -245 827 -1 152 13 238 68 401
19 56 32 106 29 110 -3 5 -14 9 -24 9 -54 0 -29 56 79 178 53 60 105 124 115
142 l19 33 -47 -6 c-25 -4 -46 -3 -46 2 0 4 18 29 40 54 43 49 154 124 289
196 78 41 83 46 65 58 -10 8 -38 27 -61 43 -65 46 -51 53 25 13 62 -32 72 -35
132 -30 36 3 101 17 145 32 67 22 91 26 147 21 111 -10 150 26 131 122 -10 50
1 117 17 107 6 -4 10 -15 10 -26 0 -33 17 -21 26 19 4 20 8 73 10 117 3 127
19 257 36 290 31 59 101 104 164 105 17 0 71 -20 122 -44z m2302 -16 c0 -14
-4 -30 -8 -36 -11 -17 -47 -26 -76 -18 l-27 6 19 30 c11 16 32 38 48 48 32 21
44 13 44 -30z m2874 14 c19 -18 20 -34 4 -86 l-11 -39 -39 38 c-43 42 -48 65
-16 87 28 20 43 20 62 0z m246 6 c25 -13 39 -59 31 -105 -8 -49 -34 -58 -53
-18 -17 36 -32 35 -38 -2 -8 -48 -25 -35 -31 26 -3 31 -9 61 -13 67 -18 30 61
55 104 32z m-166 -32 c18 -25 21 -105 6 -128 -5 -8 -10 -12 -10 -9 0 11 -21
124 -26 142 -7 24 12 21 30 -5z m883 -63 c20 -9 143 -34 272 -56 278 -47 400
-77 498 -124 127 -59 204 -123 315 -260 84 -104 101 -131 121 -185 l17 -45
-27 35 c-58 73 -115 129 -149 145 -20 9 -38 15 -40 12 -3 -2 15 -28 38 -57 71
-88 96 -125 104 -156 7 -28 5 -28 -35 15 -46 49 -61 50 -36 1 9 -18 19 -56 22
-86 7 -61 17 -66 61 -29 17 14 32 25 35 25 3 0 -8 -39 -24 -86 -30 -88 -69
-281 -69 -341 l0 -33 35 38 35 37 -25 -70 c-31 -85 -44 -106 -86 -136 -55 -41
-116 -105 -122 -129 -5 -18 2 -31 27 -55 72 -68 76 -125 6 -73 -35 25 -47 18
-52 -31 -4 -46 -29 -61 -66 -40 -28 16 -30 28 -16 97 8 43 1 51 -251 262 -212
178 -375 326 -375 341 0 13 41 -14 145 -96 283 -224 466 -365 474 -365 17 0
21 15 52 172 31 156 44 338 24 344 -5 2 -23 -21 -40 -51 -31 -58 -95 -129 -81
-90 43 118 49 146 50 221 0 72 -4 89 -31 145 -18 35 -50 81 -71 102 l-39 39
-13 -68 c-13 -67 -86 -230 -113 -253 -10 -7 -4 32 19 126 18 76 33 153 34 172
1 97 -149 203 -203 144 -11 -14 -37 -109 -37 -140 0 -2 -4 -3 -9 -3 -4 0 -13
47 -19 105 -11 116 -15 125 -44 125 -19 0 -20 -4 -13 -104 8 -116 1 -168 -21
-159 -7 3 -30 27 -50 54 -20 27 -49 56 -65 65 -34 17 -34 17 -12 -27 10 -20
19 -67 21 -114 4 -71 2 -82 -16 -98 -20 -18 -21 -17 -56 18 -41 41 -62 38 -93
-16 -13 -22 -24 -29 -42 -27 -49 6 -51 113 -4 169 14 16 24 31 22 33 -4 3
-131 39 -196 56 -55 14 -73 40 -62 87 9 42 -4 82 -43 128 -35 41 -48 69 -48
99 0 59 63 5 123 -105 64 -116 108 -149 181 -135 19 4 79 29 135 56 144 70
201 85 266 71 32 -7 68 -25 91 -45 22 -17 86 -55 144 -83 210 -102 334 -265
386 -505 20 -94 29 -277 16 -352 l-9 -58 36 6 c20 3 41 13 48 22 6 8 14 55 18
102 3 48 11 111 16 141 14 85 11 173 -7 199 -8 12 -40 40 -70 63 -30 22 -54
44 -54 49 0 6 20 7 48 3 l47 -6 -70 74 c-144 153 -245 238 -338 286 -27 13
-47 26 -45 28 2 2 51 -3 108 -11 58 -8 121 -13 140 -12 l35 4 -30 13 c-16 7
-63 18 -103 25 -40 7 -75 16 -79 19 -8 9 43 27 75 27 89 0 -156 82 -253 84
-61 2 -71 5 -80 24 -13 29 -23 28 -72 -8 -53 -39 -203 -91 -203 -71 0 11 69
74 132 121 61 45 65 60 16 60 -25 0 -51 -20 -157 -123 -124 -120 -190 -172
-212 -165 -6 2 55 66 136 142 154 147 159 156 80 156 -88 -1 -149 -51 -199
-162 -27 -62 -49 -73 -79 -40 -14 16 -13 23 14 87 18 41 47 88 72 112 30 31
38 46 30 54 -24 24 -49 2 -103 -94 -54 -95 -80 -117 -88 -73 -6 29 64 161 103
195 40 35 68 38 122 16z m-2168 -33 c-13 -10 -93 -65 -178 -122 -84 -57 -280
-198 -435 -315 -433 -325 -548 -400 -721 -468 -136 -54 -415 -119 -415 -97 0
12 47 28 161 54 124 29 232 70 349 133 132 71 224 135 500 347 275 212 538
400 610 436 84 43 171 64 129 32z m-1734 -68 c53 -25 59 -54 12 -54 -66 0
-182 54 -155 72 20 13 98 4 143 -18z m3470 0 c54 -31 66 -51 40 -70 -44 -32
-134 -3 -135 43 0 10 37 53 46 53 1 0 23 -12 49 -26z m1656 -44 c28 -21 131
-202 193 -340 40 -90 46 -183 17 -279 -12 -38 -25 -73 -30 -76 -6 -3 -6 8 0
27 5 18 9 46 9 61 l0 29 -35 -31 c-53 -46 -76 -40 -32 8 49 54 62 99 47 161
-14 60 -30 74 -31 28 0 -41 -20 -100 -35 -105 -23 -8 -127 123 -209 262 -47
79 -101 164 -120 189 -19 26 -35 48 -35 51 0 3 11 5 24 5 60 0 139 -108 210
-287 51 -129 75 -160 108 -142 18 10 20 18 15 68 -6 68 -34 126 -122 256 -36
52 -65 98 -65 103 0 14 24 32 43 32 10 0 32 -9 48 -20z m-7321 -17 c170 -7
213 -19 328 -96 l77 -52 -85 -5 -85 -5 3 -38 c4 -50 -12 -55 -92 -23 -42 17
-101 30 -168 37 -57 6 -122 13 -145 15 -23 3 -53 14 -67 25 -62 49 -1 174 74
152 8 -3 80 -7 160 -10z m4046 -138 c43 -134 176 -406 292 -598 150 -247 281
-434 570 -816 218 -290 323 -441 347 -504 25 -66 18 -166 -17 -238 -30 -61
-131 -179 -154 -179 -19 0 -18 28 1 47 31 30 96 134 111 174 26 77 19 139 -29
231 -62 120 -158 260 -308 448 -181 226 -277 356 -406 550 -240 358 -357 582
-452 858 -36 104 -41 143 -20 168 16 19 11 29 65 -141z m-1987 119 c58 -49 57
-106 -5 -248 -19 -44 -34 -83 -34 -88 0 -15 31 -8 73 16 59 34 101 41 121 21
24 -25 19 -48 -19 -85 -38 -37 -38 -45 4 -53 15 -3 31 -13 34 -21 13 -34 -35
-135 -76 -160 -32 -19 -56 30 -74 154 l-8 55 -20 -30 c-16 -23 -20 -46 -20
-112 1 -45 -2 -79 -6 -75 -19 21 -44 165 -43 247 0 74 5 101 27 154 15 36 27
77 27 91 0 29 -38 75 -71 85 -25 8 -24 23 3 52 28 30 49 29 87 -3z m2874 -41
c31 -8 57 -19 57 -23 0 -13 -84 -50 -112 -50 -41 0 -74 49 -56 83 7 14 16 17
31 12 12 -3 48 -13 80 -22z m787 -264 c47 -37 110 -93 140 -125 l55 -57 -86
69 c-47 38 -139 109 -204 159 -64 49 -149 120 -189 157 -71 68 -70 68 64 -34
74 -56 173 -132 220 -169z m-608 174 c2 -22 9 -29 30 -31 15 -2 36 2 48 8 35
19 22 -6 -35 -68 -30 -33 -55 -62 -55 -65 0 -4 20 -15 45 -26 50 -22 54 -35
25 -83 -11 -18 -20 -47 -20 -64 0 -37 -20 -57 -52 -52 -22 3 -23 7 -23 78 0
70 -2 75 -22 78 -19 3 -24 -5 -38 -53 -14 -46 -19 -54 -31 -44 -18 15 -18 30
0 71 8 18 17 46 21 61 3 16 20 42 38 58 l32 30 -38 35 -37 34 47 30 c26 17 50
30 54 30 4 0 9 -12 11 -27z m-345 -203 c59 -133 142 -310 375 -800 156 -326
261 -560 256 -566 -6 -6 -193 334 -281 512 -145 291 -270 581 -386 897 -50
135 -65 188 -34 117 8 -19 40 -91 70 -160z m-4712 131 c86 -23 265 -105 265
-122 0 -19 -30 -21 -81 -4 -45 15 -78 17 -263 11 -237 -8 -242 -7 -253 56 -4
27 -1 45 12 64 l17 26 112 -5 c66 -3 143 -13 191 -26z m1810 -28 c4 -10 11
-62 15 -115 5 -54 15 -119 23 -145 25 -84 0 -108 -83 -82 -19 6 -57 14 -85 17
-42 6 -51 11 -53 30 -5 33 146 312 168 312 4 0 11 -8 15 -17z m3016 -83 c12
-32 27 -38 48 -17 10 10 12 2 9 -38 -3 -46 -5 -50 -30 -53 -18 -2 -31 4 -42
20 -22 31 -21 118 1 118 2 0 9 -13 14 -30z m-3634 -113 c5 -35 5 -36 -38 -46
-126 -31 -119 -27 -119 -76 0 -66 -22 -77 -177 -84 -218 -10 -611 18 -634 45
-10 12 5 14 92 14 57 0 147 -7 199 -15 104 -16 179 -18 283 -8 l68 6 25 49
c14 28 24 51 22 53 -2 1 -91 13 -198 25 -107 12 -197 24 -199 25 -1 2 0 8 4
14 8 14 119 14 210 0 79 -12 374 -28 391 -22 6 2 20 20 30 38 21 39 32 34 41
-18z m-793 27 c3 -9 6 -33 6 -54 0 -46 -23 -74 -54 -65 -12 3 -46 8 -76 11
-30 3 -70 7 -89 10 -56 9 -20 27 67 34 73 5 77 6 80 30 2 14 5 31 7 38 6 17
52 15 59 -4z m795 -144 c19 -5 45 -19 58 -32 23 -21 31 -62 14 -72 -15 -10
-80 23 -92 46 l-12 22 -18 -23 c-22 -27 -23 -53 -5 -136 8 -33 11 -63 7 -67
-12 -12 -202 -59 -229 -56 -30 3 -30 6 -21 117 3 36 0 55 -8 58 -11 4 -26 -37
-50 -137 -9 -34 -11 -35 -54 -34 -24 0 -98 13 -164 29 -118 28 -119 29 -80 37
37 9 108 6 198 -8 50 -8 74 14 83 73 10 69 29 83 95 70 30 -5 55 -11 57 -12 1
-1 -7 -32 -19 -69 -11 -38 -18 -70 -15 -73 3 -3 17 -2 31 1 31 8 54 44 96 151
32 79 62 125 83 125 6 0 26 -4 45 -10z m6159 -100 c36 -22 58 -60 49 -84 -4
-9 -18 -22 -33 -28 -23 -11 -33 -8 -80 17 -35 19 -50 33 -44 39 6 6 22 4 45
-7 44 -21 61 -21 69 -1 8 21 1 31 -35 49 -30 16 -39 35 -16 35 6 0 27 -9 45
-20z m-7156 -23 c167 -95 333 -268 388 -405 18 -45 7 -50 -40 -18 -44 29 -81
33 -100 11 -18 -21 -27 -11 -35 38 -10 58 -40 118 -76 153 -16 15 -68 55 -116
89 -87 60 -132 117 -119 150 8 23 35 18 98 -18z m5438 -10 c71 -35 103 -71
103 -114 0 -30 -38 -295 -50 -353 -14 -62 -34 -43 -80 75 -62 156 -63 172 -19
214 40 39 44 51 19 51 -27 1 -54 25 -55 51 -3 49 2 109 10 108 4 0 36 -14 72
-32z m-3795 -12 c142 -26 167 -34 163 -53 -5 -26 -270 -22 -441 7 -70 11 -143
21 -162 21 -37 0 -50 12 -41 37 6 14 29 15 199 10 111 -3 230 -12 282 -22z
m-2380 -6 c28 -12 22 -13 -80 -20 -108 -7 -175 -18 -230 -39 -44 -17 -40 -4 7
24 88 51 227 68 303 35z m1203 -10 c85 -10 102 -15 100 -28 -7 -32 -287 -9
-358 30 l-35 20 95 -5 c52 -3 141 -10 198 -17z m2082 -39 c-67 -53 -328 -165
-345 -148 -5 4 344 166 360 167 6 0 -1 -8 -15 -19z m-1021 -84 c130 -33 154
-45 86 -46 -119 0 -465 54 -465 73 0 20 268 0 379 -27z m4334 -30 c42 -27 77
-56 77 -64 0 -22 -56 -72 -82 -72 -57 0 -98 60 -98 145 0 44 3 54 13 48 7 -4
48 -30 90 -57z m-4808 -8 c32 -14 32 -37 -1 -124 -32 -86 -44 -100 -73 -85
-22 12 -28 54 -11 81 8 13 11 12 23 -4 14 -19 15 -19 25 0 21 41 25 85 7 97
-10 8 -14 19 -9 30 7 20 6 20 39 5z m-447 -108 c18 0 22 -6 22 -33 0 -38 -15
-57 -45 -57 -34 0 -45 20 -45 85 l1 60 22 -27 c13 -16 33 -28 45 -28z m278 29
c11 -13 26 -18 39 -15 18 5 18 3 -4 -15 -15 -12 -38 -19 -66 -19 -45 0 -55
-10 -55 -55 0 -25 -26 -37 -60 -28 -13 3 -20 14 -20 29 0 12 -5 26 -11 29 -23
15 -1 38 61 65 78 35 91 36 116 9z m-411 -94 c38 -64 79 -181 73 -213 -2 -11
-36 54 -81 152 -58 128 -71 165 -53 146 14 -14 41 -52 61 -85z m810 75 c31 0
38 -24 20 -66 -16 -39 -51 -56 -96 -47 -25 5 -30 10 -25 27 3 12 6 29 6 39 0
24 38 60 57 53 8 -3 25 -6 38 -6z m358 -3 c10 -8 17 -32 19 -67 l3 -55 -50 -7
c-64 -10 -118 -2 -150 24 -22 17 -25 25 -19 56 4 21 10 42 15 48 12 15 162 16
182 1z m4393 -15 c38 -32 84 -100 84 -125 0 -29 -56 -83 -98 -94 -39 -9 -147
50 -189 106 -18 23 -33 46 -33 51 0 5 17 2 39 -7 50 -20 87 -4 116 50 22 41
47 47 81 19z m-4806 -152 c150 -13 339 -38 420 -55 62 -13 57 -14 -115 -10
-99 3 -256 9 -350 15 -93 6 -246 14 -340 19 -172 9 -219 16 -209 32 7 12 451
11 594 -1z m4935 -60 c12 -38 56 -80 83 -81 24 0 25 -1 7 -9 -11 -5 -39 -9
-63 -9 -36 -1 -49 5 -74 30 l-31 31 29 28 c35 35 41 36 49 10z m-4905 -32
c203 -18 180 -27 -70 -27 -338 -1 -620 27 -405 40 120 7 305 2 475 -13z
m-3091 -235 c-37 -233 -17 -448 65 -710 l34 -108 -23 -20 c-14 -11 -31 -38
-39 -60 -45 -126 -90 -225 -100 -222 -19 7 -8 55 35 148 65 142 67 249 10 509
-42 191 -38 380 12 565 30 111 33 65 6 -102z m3781 12 c324 -15 703 -141 984
-329 72 -48 212 -176 193 -176 -4 0 -78 35 -165 79 -485 242 -904 333 -1332
289 -19 -2 -26 2 -28 18 -3 18 5 23 42 33 86 21 215 24 341 7 286 -40 506 -96
692 -177 105 -46 165 -50 68 -5 -181 86 -280 122 -435 161 -170 43 -291 58
-497 59 -147 1 -189 4 -181 13 19 23 99 42 163 37 22 -2 92 -6 155 -9z m4490
-256 c36 -43 39 -49 29 -80 -5 -20 -7 -77 -3 -136 5 -71 3 -117 -6 -147 -12
-45 -12 -46 35 -127 58 -101 68 -149 34 -173 -24 -17 -64 -29 -132 -41 -32 -5
-36 -9 -27 -21 15 -17 45 -18 103 -2 24 6 59 8 80 4 33 -6 42 -15 82 -83 76
-130 71 -155 -37 -195 -59 -21 -96 -56 -83 -78 3 -5 3 -10 -2 -10 -4 1 -26 29
-48 62 -67 103 -193 257 -289 353 -150 149 -291 254 -476 354 -107 57 -102 62
25 26 155 -45 351 -158 514 -296 l74 -63 -6 35 c-4 19 -10 46 -13 62 -9 38 12
35 67 -8 48 -38 59 -33 34 16 -33 64 -18 174 33 232 8 9 13 19 11 21 -2 2 -62
-14 -134 -35 -71 -21 -139 -38 -150 -38 -20 0 -20 0 0 14 10 9 55 30 99 48 43
17 97 48 120 68 39 35 41 39 41 95 0 47 -8 76 -39 144 -24 52 -41 105 -43 135
l-4 50 36 -69 c19 -39 53 -91 75 -117z m-5054 135 c-48 -42 -125 -79 -304
-145 -229 -85 -262 -108 -262 -180 0 -39 54 -126 211 -340 90 -122 101 -144
101 -219 1 -57 -20 -168 -33 -175 -7 -5 -197 284 -286 435 -61 104 -74 143
-74 214 0 74 16 128 54 178 46 60 104 92 242 133 66 20 178 58 250 85 71 26
132 48 135 49 3 0 -13 -15 -34 -35z m2345 -179 c-70 -80 -100 -184 -81 -282 5
-33 18 -64 27 -70 21 -16 92 -17 167 -2 90 19 96 32 96 204 0 156 5 169 57
163 l28 -3 -3 -165 c-4 -185 -12 -212 -64 -228 -27 -8 -259 -24 -332 -23 -45
0 -51 22 -54 193 -2 88 -1 171 2 184 6 23 27 33 121 53 66 15 69 13 36 -24z
m-2386 -23 c-6 -5 -71 -33 -145 -62 -74 -29 -161 -66 -192 -82 -64 -31 -88
-35 -88 -13 0 29 245 136 354 154 71 12 82 12 71 3z m1545 -189 c78 -73 226
-251 216 -260 -9 -9 -120 72 -187 134 -45 42 -76 83 -98 127 -50 102 -42 102
69 -1z m-1621 34 c-15 -11 -273 -117 -283 -117 -19 0 -27 26 -13 38 30 25 283
98 296 86 2 -2 2 -5 0 -7z m4156 -265 c113 -118 118 -124 85 -117 -128 27
-232 105 -282 210 -22 47 -28 74 -28 125 l0 64 53 -79 c28 -44 106 -135 172
-203z m-3895 106 c-24 -278 -75 -609 -134 -865 -58 -251 -171 -603 -193 -603
-7 0 -13 2 -13 5 0 3 33 160 74 348 41 188 118 548 172 799 54 252 100 455
102 453 2 -2 -1 -63 -8 -137z m1889 57 c36 -9 71 -21 78 -27 13 -10 18 -60 7
-70 -11 -12 -105 37 -141 74 -42 43 -37 45 56 23z m3501 -9 l35 -13 -40 -11
c-22 -6 -112 -29 -200 -51 -140 -35 -162 -38 -175 -26 -23 24 -4 33 151 75
158 42 178 45 229 26z m316 -91 c74 -43 137 -176 107 -224 -13 -20 -105 -28
-428 -36 -284 -8 -280 -9 -280 80 0 50 3 60 28 81 33 28 126 58 297 95 165 35
221 36 276 4z m-4001 -58 c43 -37 67 -85 79 -154 3 -18 1 -33 -4 -33 -24 0
-180 220 -180 254 0 11 59 -26 105 -67z m206 -80 c30 -41 63 -129 57 -149 -6
-16 -65 66 -113 155 l-38 70 33 -19 c18 -10 45 -36 61 -57z m289 -36 c221 -66
258 -85 113 -60 -89 16 -111 4 -53 -26 57 -30 45 -31 -57 -1 -112 33 -172 61
-210 98 -27 26 -43 58 -30 58 1 0 108 -31 237 -69z m939 -7 c-37 -39 -119 -82
-190 -99 -66 -15 -224 -19 -269 -6 -22 7 -20 9 20 15 51 9 332 79 400 100 63
20 67 19 39 -10z m-3943 -96 c33 -64 -8 -141 -145 -270 -130 -123 -262 -210
-411 -271 -140 -57 -140 -53 -5 48 246 185 397 330 493 473 19 28 39 52 43 52
5 0 16 -14 25 -32z m3017 -39 c162 -65 247 -64 303 5 l26 31 -6 -38 c-3 -21
-13 -55 -23 -75 -16 -33 -23 -37 -62 -40 -77 -6 -286 72 -356 132 -29 25 -30
25 -7 26 13 0 70 -18 125 -41z m3590 -32 c7 -19 -26 -135 -100 -347 l-68 -195
-45 -7 c-52 -8 -491 -18 -502 -12 -11 7 52 128 123 235 78 116 225 270 286
300 33 16 74 24 152 29 58 4 116 8 127 8 12 1 24 -4 27 -11z m-2627 -17 c55
-5 131 -17 169 -26 61 -16 66 -18 44 -27 -62 -26 -796 -3 -747 23 7 4 92 13
188 20 96 6 180 13 185 15 17 6 57 5 161 -5z m-827 -181 c36 -14 81 -22 126
-23 71 -1 387 27 491 44 106 17 67 -9 -51 -35 -65 -14 -236 -59 -408 -106
-140 -39 -172 -37 -212 18 -28 39 -125 189 -133 206 -2 4 26 -12 64 -37 37
-25 93 -55 123 -67z m1001 6 c0 -11 -200 -66 -342 -94 -165 -32 -314 -78 -447
-136 -43 -19 -84 -35 -89 -35 -5 0 -22 10 -36 21 -35 27 -33 29 119 78 157 50
255 74 531 126 235 44 264 48 264 40z m1080 -79 c230 -44 330 -97 427 -228 19
-26 32 -52 29 -57 -4 -5 -23 -1 -46 10 -99 48 -339 72 -434 45 -84 -25 -102
-9 -150 122 -26 73 -32 113 -19 125 11 12 64 7 193 -17z m-1180 -50 c0 -5 6
-2 -315 -114 -126 -44 -292 -103 -368 -132 -140 -52 -163 -55 -155 -14 8 43
124 85 538 193 249 65 300 77 300 67z m-1087 -121 c8 -8 27 -46 42 -85 29 -75
51 -98 108 -109 26 -5 33 -12 35 -34 l3 -28 -50 7 c-35 4 -51 3 -51 -5 0 -6
12 -13 28 -17 53 -11 76 -24 63 -37 -8 -8 -22 -8 -51 0 -71 18 -59 -8 13 -31
35 -11 18 -29 -23 -23 -35 4 -39 3 -29 -9 6 -8 22 -14 34 -14 12 0 28 -6 34
-14 11 -12 6 -15 -31 -18 -49 -3 -60 -28 -18 -38 16 -4 25 -13 25 -25 0 -17
-6 -20 -34 -17 -42 3 -58 -10 -71 -58 -13 -46 -46 -90 -69 -90 -38 0 -54 25
-62 94 -8 79 -26 104 -100 135 -27 12 -49 24 -49 27 0 3 33 3 73 -1 86 -7 77
4 -25 35 -38 12 -68 25 -68 30 0 13 24 13 72 -2 26 -8 42 -8 49 -1 7 7 -10 16
-53 28 -62 17 -123 43 -116 50 1 2 44 -5 93 -15 49 -10 92 -17 94 -14 6 5 -57
30 -99 39 -19 4 -48 14 -65 23 -30 16 -30 16 -6 21 13 4 54 2 91 -3 121 -17
118 1 -10 49 -63 23 -116 47 -117 52 -4 10 159 -11 178 -23 17 -10 48 17 54
48 14 61 33 88 65 88 16 0 35 -7 43 -15z m1061 -4 c3 -4 -43 -23 -102 -41
-193 -59 -647 -212 -656 -221 -17 -15 -36 -10 -36 10 0 15 18 26 79 50 130 49
325 109 495 152 88 22 167 44 175 49 20 12 38 12 45 1z m-135 -126 c-3 -2
-111 -47 -240 -98 -128 -52 -271 -110 -315 -130 -84 -36 -104 -35 -104 4 0 32
183 102 500 193 139 40 174 47 159 31z m-4526 -116 c187 -56 340 -109 333
-116 -7 -8 -816 101 -816 109 0 5 10 8 23 9 12 0 63 13 112 29 112 36 130 34
348 -31z m6998 1 c13 -8 19 -21 19 -47 0 -46 -122 -526 -131 -516 -11 13 -209
473 -209 487 0 34 63 64 160 76 97 11 139 11 161 0z"/>
<path d="M4980 9557 c-13 -27 -23 -33 -74 -42 -36 -7 -64 -19 -73 -30 -15 -22
-18 -81 -3 -90 6 -3 10 -13 10 -22 0 -11 -4 -10 -17 6 -16 19 -24 21 -74 15
l-56 -6 15 -47 c23 -74 35 -94 72 -119 44 -29 60 -25 86 22 21 37 28 41 107
61 46 12 89 25 95 29 7 4 9 36 6 94 -7 103 -21 159 -37 143 -8 -8 -15 -7 -26
3 -14 12 -18 10 -31 -17z"/>
<path d="M4691 9194 c-20 -25 -37 -101 -29 -126 3 -7 -2 -18 -9 -23 -11 -8
-12 -20 -4 -55 15 -64 13 -115 -4 -157 -14 -34 -14 -37 8 -57 21 -20 25 -34
30 -125 5 -106 8 -118 26 -106 7 4 11 79 11 218 0 194 -2 215 -20 245 -25 41
-25 44 3 37 19 -5 27 3 55 54 38 70 38 75 12 101 -27 27 -55 25 -79 -6z"/>
<path d="M5389 6653 c15 -32 40 -91 55 -131 35 -99 41 -109 72 -116 34 -9 174
22 174 38 0 24 -293 266 -322 266 -4 0 5 -26 21 -57z"/>
<path d="M1110 3453 c-85 -17 -183 -50 -245 -81 -59 -29 -138 -82 -132 -88 2
-2 42 14 89 35 77 36 175 69 251 85 25 6 27 4 27 -23 0 -52 -27 -72 -100 -75
-36 -2 -78 -9 -95 -17 -29 -13 -26 -14 63 -17 l92 -3 0 -65 c0 -56 -3 -68 -25
-90 -15 -15 -32 -23 -43 -20 -77 23 -269 33 -322 16 -25 -8 -25 -8 5 -10 174
-9 190 -12 206 -41 12 -24 -7 -163 -25 -178 -7 -5 -43 -4 -91 4 -44 7 -119 16
-166 20 -73 6 -88 5 -102 -10 -42 -41 -28 -45 226 -61 133 -9 141 -14 135 -96
-5 -65 7 -79 18 -20 11 60 30 89 64 96 48 9 70 -8 70 -54 0 -51 18 -52 22 -2
l3 37 70 5 c70 6 71 13 5 24 -61 11 -62 13 -51 107 7 53 18 93 30 110 15 20
18 36 14 72 -6 54 10 103 40 119 21 11 150 13 168 3 15 -10 11 -68 -17 -244
-31 -197 -32 -210 -20 -211 6 0 24 79 42 177 43 233 47 248 83 263 17 6 35 9
42 5 7 -5 10 -3 7 6 -3 8 -13 16 -24 17 -10 2 -23 8 -28 12 -12 12 2 65 25 94
l19 25 68 -23 c282 -96 539 -365 641 -671 92 -277 45 -596 -130 -873 -22 -35
-38 -66 -36 -68 2 -3 25 18 50 45 56 63 138 227 174 346 23 80 26 108 27 245
1 164 -4 199 -55 356 -89 273 -260 478 -504 603 -97 49 -217 91 -261 91 -38 0
-49 -14 -57 -79 -3 -25 -14 -53 -26 -65 -19 -18 -25 -19 -66 -8 -25 7 -59 12
-75 12 -37 0 -38 14 -10 95 11 32 20 61 20 65 0 15 -27 16 -90 3z m-146 -382
c9 -14 -14 -124 -32 -151 -17 -25 -17 -24 -22 50 -3 41 -2 83 3 93 8 18 42 23
51 8z m66 -101 c0 -51 -4 -65 -25 -85 -13 -14 -31 -25 -40 -25 -14 0 -14 3 3
28 23 33 42 86 42 118 0 13 5 24 10 24 6 0 10 -27 10 -60z"/>
<path d="M1552 3228 c-13 -49 3 -82 62 -127 82 -63 189 -180 230 -251 41 -70
60 -89 91 -90 18 -1 18 -2 -2 -10 -13 -5 -23 -11 -23 -13 0 -22 44 -166 56
-185 15 -23 20 -24 77 -18 33 3 62 8 65 11 8 8 -50 178 -86 250 -48 98 -107
178 -194 263 -72 71 -186 160 -240 188 -27 14 -28 13 -36 -18z"/>
<path d="M430 2779 c-7 -11 -9 -23 -6 -26 2 -3 77 -6 165 -7 89 -1 158 1 154
4 -15 12 -208 50 -255 50 -38 0 -50 -4 -58 -21z"/>
<path d="M1630 2746 c0 -22 149 -58 204 -49 81 13 13 44 -111 51 -51 2 -93 2
-93 -2z"/>
<path d="M411 2646 c-17 -20 -21 -122 -6 -142 10 -15 28 -17 120 -15 130 3
134 -14 5 -22 -51 -3 -98 -11 -107 -18 -26 -22 -34 -61 -28 -124 l7 -60 96 -1
c54 0 125 -2 159 -5 54 -4 64 -1 87 20 14 14 26 30 26 37 0 15 -83 34 -145 34
-24 0 -46 4 -49 9 -4 5 11 7 32 4 64 -9 239 15 303 41 63 25 152 87 141 98 -4
3 -23 11 -42 16 -19 6 -107 33 -196 60 -236 74 -378 98 -403 68z"/>
<path d="M1993 2500 c-21 -8 -23 -16 -23 -75 0 -61 2 -66 26 -75 41 -16 92
-12 113 9 24 24 19 96 -8 124 -21 21 -77 30 -108 17z"/>
<path d="M1745 2474 c38 -18 63 -24 105 -22 48 3 55 6 58 26 3 22 2 22 -105
21 l-108 -1 50 -24z"/>
<path d="M1712 2321 c-23 -14 85 -55 148 -55 48 -1 55 1 55 18 0 17 -12 22
-85 33 -103 15 -102 15 -118 4z"/>
<path d="M1986 2287 c-27 -27 -44 -133 -26 -167 15 -27 88 -28 121 -1 20 16
24 30 27 96 5 87 0 95 -61 95 -26 0 -45 -7 -61 -23z"/>
<path d="M406 2231 c-13 -20 14 -69 45 -81 17 -7 44 -10 64 -6 21 4 52 2 72
-5 35 -11 38 -10 65 20 53 59 40 67 -133 77 -78 5 -108 4 -113 -5z"/>
<path d="M1420 2118 c-79 -123 -161 -176 -232 -149 -31 12 -84 75 -100 119
-27 72 -32 18 -6 -66 6 -19 23 -49 40 -67 91 -104 238 -46 317 125 48 103 37
125 -19 38z"/>
<path d="M436 2104 c-10 -26 5 -64 28 -70 12 -3 49 -4 81 -2 56 3 60 5 63 28
4 45 -11 54 -91 57 -61 3 -76 0 -81 -13z"/>
<path d="M1716 2070 c5 -5 43 -23 83 -40 81 -33 91 -30 91 23 l0 27 -92 0
c-59 0 -89 -3 -82 -10z"/>
<path d="M1964 2068 c-26 -12 -44 -48 -44 -86 0 -15 -7 -38 -16 -50 -15 -21
-21 -22 -194 -22 -108 0 -181 -4 -185 -10 -4 -7 57 -10 174 -10 117 0 181 -4
181 -10 0 -21 -58 -139 -98 -199 -23 -33 -38 -61 -33 -61 4 0 27 13 52 28 86
55 191 202 245 346 22 56 24 70 13 77 -19 12 -69 10 -95 -3z"/>
<path d="M478 1989 c-17 -11 -1 -82 23 -101 45 -38 74 -19 81 54 l5 46 -49 4
c-28 1 -55 0 -60 -3z"/>
<path d="M1305 1698 c40 -14 361 -15 400 -1 23 9 -23 11 -200 11 -174 0 -223
-2 -200 -10z"/>
<path d="M754 1582 c13 -22 133 -102 197 -132 140 -65 298 -80 459 -44 l85 19
-170 6 c-93 3 -188 11 -211 18 -23 6 -72 31 -110 56 -38 25 -78 47 -89 50 -70
13 -142 28 -154 33 -9 3 -12 1 -7 -6z"/>
<path d="M1200 1532 c0 -16 164 -35 235 -27 136 14 120 23 -42 24 -89 1 -168
4 -177 7 -9 3 -16 2 -16 -4z"/>
<path d="M8480 4256 c0 -2 39 -26 88 -52 48 -26 115 -65 150 -87 35 -22 66
-37 69 -33 12 11 -68 84 -126 114 -67 36 -181 72 -181 58z"/>
<path d="M8660 3960 c19 -12 79 -65 133 -118 l98 -97 -26 60 c-49 113 -106
165 -187 172 l-53 5 35 -22z"/>
<path d="M5650 1177 c0 -24 5 -41 48 -167 l30 -85 7 67 c10 89 1 131 -37 173
-35 41 -48 44 -48 12z"/>
<path d="M5598 1104 c-6 -25 -2 -104 7 -112 12 -13 40 16 43 45 4 39 -41 100
-50 67z"/>
<path d="M5641 916 c-23 -37 -27 -92 -9 -131 16 -35 47 -29 71 13 20 33 19 33
-4 93 -13 32 -27 59 -31 59 -3 0 -16 -15 -27 -34z"/>
</g>
</svg>
